<svg xmlns="http://www.w3.org/2000/svg" xmlns:xlink="http://www.w3.org/1999/xlink" width="512" zoomAndPan="magnify" viewBox="0 0 384 383.999986" height="512" preserveAspectRatio="xMidYMid meet" version="1.0"><path fill="#646cff" d="M 110.511719 236.097656 C 96.804688 236.097656 85.703125 247.210938 85.703125 260.90625 C 85.703125 274.601562 96.804688 285.707031 110.511719 285.707031 C 124.210938 285.707031 135.316406 274.601562 135.316406 260.90625 C 135.316406 247.210938 124.210938 236.097656 110.511719 236.097656 " fill-opacity="1" fill-rule="nonzero"/><path fill="#646cff" d="M 114.335938 177.320312 L 118.96875 177.320312 L 118.96875 117.640625 L 114.335938 117.640625 L 114.335938 177.320312 " fill-opacity="1" fill-rule="nonzero"/><path fill="#646cff" d="M 269.863281 237.835938 C 257.121094 237.835938 246.796875 248.171875 246.796875 260.90625 C 246.796875 273.644531 257.121094 283.972656 269.863281 283.972656 C 282.605469 283.972656 292.933594 273.644531 292.933594 260.90625 C 292.933594 248.171875 282.605469 237.835938 269.863281 237.835938 " fill-opacity="1" fill-rule="nonzero"/><path fill="#646cff" d="M 329.496094 229.140625 C 329.679688 229.140625 329.863281 229.121094 330.042969 229.113281 L 330.042969 194.34375 C 329.863281 194.332031 329.679688 194.3125 329.496094 194.3125 C 319.882812 194.3125 312.085938 202.109375 312.085938 211.726562 C 312.085938 221.34375 319.882812 229.140625 329.496094 229.140625 " fill-opacity="1" fill-rule="nonzero"/><path fill="#646cff" d="M 47.039062 183.820312 L 47.039062 134.015625 C 47.039062 121.382812 57.285156 111.140625 69.914062 111.140625 L 312.847656 111.140625 C 325.476562 111.140625 335.71875 121.382812 335.71875 134.015625 L 335.71875 183.820312 Z M 335.71875 235.644531 C 335.71875 248.277344 325.476562 258.519531 312.847656 258.519531 L 305.296875 258.519531 C 304.304688 239.96875 288.554688 224.8125 269.792969 224.8125 C 251.027344 224.8125 235.277344 239.96875 234.285156 258.519531 L 145.679688 258.519531 C 144.683594 239.96875 128.9375 224.8125 110.175781 224.8125 C 91.414062 224.8125 75.660156 239.96875 74.664062 258.519531 L 69.914062 258.519531 C 57.285156 258.519531 47.039062 248.277344 47.039062 235.644531 L 47.039062 186.8125 L 335.71875 186.8125 Z M 269.863281 294.179688 C 251.492188 294.179688 236.59375 279.28125 236.59375 260.90625 C 236.59375 242.53125 251.492188 227.636719 269.863281 227.636719 C 288.242188 227.636719 303.136719 242.53125 303.136719 260.90625 C 303.136719 279.28125 288.242188 294.179688 269.863281 294.179688 Z M 110.507812 294.179688 C 92.136719 294.179688 77.234375 279.28125 77.234375 260.90625 C 77.234375 242.53125 92.136719 227.636719 110.507812 227.636719 C 128.882812 227.636719 143.78125 242.53125 143.78125 260.90625 C 143.78125 279.28125 128.882812 294.179688 110.507812 294.179688 Z M 191.941406 -0.0507812 C 85.90625 -0.0507812 -0.0507812 85.90625 -0.0507812 191.941406 C -0.0507812 297.976562 85.90625 383.933594 191.941406 383.933594 C 297.976562 383.933594 383.933594 297.976562 383.933594 191.941406 C 383.933594 85.90625 297.976562 -0.0507812 191.941406 -0.0507812 " fill-opacity="1" fill-rule="nonzero"/><path fill="#646cff" d="M 263.796875 177.320312 L 268.421875 177.320312 L 268.421875 117.640625 L 263.796875 117.640625 L 263.796875 177.320312 " fill-opacity="1" fill-rule="nonzero"/><path fill="#646cff" d="M 189.070312 177.320312 L 193.691406 177.320312 L 193.691406 117.640625 L 189.070312 117.640625 L 189.070312 177.320312 " fill-opacity="1" fill-rule="nonzero"/></svg>